<svg xmlns="http://www.w3.org/2000/svg" version="1.0" width="279.000000pt" height="223.000000pt" viewBox="0 0 279.000000 223.000000" preserveAspectRatio="xMidYMid meet">
<metadata>
Created by potrace 1.10, written by Peter Selinger 2001-2011
</metadata>
<g transform="translate(0.000000,223.000000) scale(0.100000,-0.100000)" fill="#000000" stroke="none">
<path d="M1197 1709 c-93 -104 -173 -189 -179 -189 -6 0 -3 12 7 26 14 22 15 28 4 35 -42 27 -377 209 -385 209 -5 0 -14 -9 -21 -19 -6 -10 -95 -123 -196 -249 -102 -127 -188 -236 -192 -241 -4 -7 9 -11 37 -11 44 0 44 0 97 82 29 45 103 149 163 231 l110 148 55 -78 c30 -43 82 -119 116 -170 34 -51 68 -92 75 -93 20 0 13 -13 -43 -74 l-54 -59 -178 -18 c-98 -10 -256 -19 -350 -19 l-173 0 0 -485 0 -485 105 0 c87 0 105 3 105 15 0 12 -17 15 -92 15 l-93 0 0 455 0 455 366 0 365 0 235 262 c129 143 248 277 264 296 l30 34 260 -296 260 -296 388 0 387 0 0 -455 0 -455 -60 0 c-41 0 -60 -4 -60 -12 0 -9 19 -13 67 -11 l68 1 3 481 2 481 -182 0 c-101 0 -264 7 -363 16 l-180 17 -62 65 c-64 67 -73 82 -50 82 6 0 62 74 122 165 61 90 115 164 120 164 11 0 213 -270 293 -392 29 -45 55 -83 56 -85 6 -5 86 -8 86 -2 0 3 -16 25 -36 50 -20 25 -117 148 -217 273 -135 172 -184 227 -196 222 -16 -6 -372 -204 -380 -211 -3 -3 1 -10 7 -16 14 -14 16 -28 3 -28 -5 0 -80 80 -166 178 -87 97 -163 178 -169 179 -6 1 -87 -83 -179 -188z m380 -61 c63 -71 116 -128 118 -128 17 0 35 16 35 30 0 22 37 50 150 111 47 25 111 60 143 78 60 34 96 34 52 0 -14 -11 -45 -50 -69 -87 -120 -180 -147 -218 -168 -233 -19 -15 -20 -21 -11 -42 6 -14 37 -52 69 -86 48 -51 62 -61 90 -61 56 0 38 -16 -20 -18 -52 -1 -55 0 -97 46 -40 42 -288 324 -364 412 -67 77 -113 120 -132 120 -12 0 -50 -34 -98 -87 -43 -49 -103 -115 -134 -149 -31 -33 -67 -74 -81 -90 -13 -16 -49 -56 -80 -89 -30 -34 -75 -83 -100 -111 l-45 -50 -83 0 c-45 -1 -81 0 -79 2 1 2 32 8 67 13 58 10 69 15 106 56 23 24 49 56 59 71 16 25 16 27 -8 53 -13 14 -59 78 -102 141 -43 63 -93 134 -111 157 -19 23 -34 44 -34 47 0 8 32 -5 63 -26 15 -11 27 -17 27 -14 0 6 201 -106 241 -135 19 -14 25 -25 22 -42 -12 -60 57 -27 130 62 20 25 63 74 94 109 32 34 78 85 102 113 l45 51 44 -49 c24 -26 96 -105 159 -175z m811 -263 c-3 -3 -9 2 -12 12 -6 14 -5 15 5 6 7 -7 10 -15 7 -18z m-2034 -13 c-30 -51 -51 -75 -63 -71 -7 3 2 20 24 44 19 22 35 43 35 48 0 4 5 7 11 7 6 0 3 -12 -7 -28z m2094 -46 c37 -50 40 -61 12 -46 -19 10 -65 90 -52 90 4 0 22 -20 40 -44z m-1801 -112 c-3 -3 -12 -4 -19 -1 -8 3 -5 6 6 6 11 1 17 -2 13 -5z m1410 0 c-3 -3 -12 -4 -19 -1 -8 3 -5 6 6 6 11 1 17 -2 13 -5z m56 -1 c-7 -2 -21 -2 -30 0 -10 3 -4 5 12 5 17 0 24 -2 18 -5z" style="&#10;    fill: #2e7fb4;&#10;"/>
<path d="M1271 1608 c-56 -61 -99 -113 -96 -116 2 -2 47 34 100 82 52 47 97 86 99 86 3 0 51 -40 107 -90 57 -49 105 -88 107 -85 4 3 -207 235 -214 235 -2 0 -48 -50 -103 -112z" style="&#10;    fill: gray;&#10;"/>
<path d="M2054 1606 c-71 -87 -74 -98 -11 -37 l56 54 43 -38 c24 -21 51 -47 60 -59 9 -11 19 -19 21 -16 2 3 -24 39 -58 81 l-62 76 -49 -61z" style="&#10;    fill: gray;&#10;"/>
<path d="M566 1579 c-32 -38 -56 -72 -54 -74 2 -3 29 20 58 50 l54 55 63 -62 c35 -34 63 -59 63 -54 0 7 -118 156 -124 156 -1 0 -28 -32 -60 -71z" style="&#10;    fill: gray;&#10;"/>
<path d="M2050 1530 c0 -15 7 -20 25 -20 18 0 25 5 25 20 0 15 -7 20 -25 20 -18 0 -25 -5 -25 -20z" style="&#10;    fill: #45a95e;&#10;"/>
<path d="M2110 1530 c0 -15 7 -20 25 -20 18 0 25 5 25 20 0 15 -7 20 -25 20 -18 0 -25 -5 -25 -20z" style="&#10;    fill: #45a95e;&#10;"/>
<path d="M580 1520 c0 -17 7 -20 50 -20 43 0 50 3 50 20 0 17 -7 20 -50 20 -43 0 -50 -3 -50 -20z" style="&#10;    fill: #45a95e;&#10;"/>
<path d="M1304 1476 c-24 -24 -34 -43 -34 -65 0 -31 1 -31 50 -31 l50 0 0 65 c0 78 -13 84 -66 31z m38 -31 c6 -30 -19 -57 -32 -35 -5 8 -7 17 -6 20 2 3 6 13 9 23 9 25 24 21 29 -8z" style="&#10;    fill: #45a95e;&#10;"/>
<path d="M1390 1445 l0 -65 50 0 c56 0 60 7 36 65 -12 28 -58 65 -81 65 -3 0 -5 -29 -5 -65z m57 2 c12 -26 2 -54 -16 -43 -13 8 -15 66 -3 66 5 0 14 -11 19 -23z" style="&#10;    fill: #45a95e;&#10;"/>
<path d="M2050 1480 c0 -15 7 -20 25 -20 18 0 25 5 25 20 0 15 -7 20 -25 20 -18 0 -25 -5 -25 -20z" style="&#10;    fill: #45a95e;&#10;"/>
<path d="M2110 1480 c0 -15 7 -20 25 -20 18 0 25 5 25 20 0 15 -7 20 -25 20 -18 0 -25 -5 -25 -20z" style="&#10;    fill: #45a95e;&#10;"/>
<path d="M580 1470 c0 -17 7 -20 50 -20 43 0 50 3 50 20 0 17 -7 20 -50 20 -43 0 -50 -3 -50 -20z" style="&#10;    fill: #45a95e;&#10;"/>
<path d="M1270 1305 l0 -55 50 0 50 0 0 55 0 55 -50 0 -50 0 0 -55z m72 -10 c-7 -38 -46 -35 -49 4 -1 21 3 31 15 34 26 5 40 -10 34 -38z" style="&#10;    fill: #45a95e;&#10;"/>
<path d="M1390 1305 l0 -56 48 3 47 3 0 50 0 50 -47 3 -48 3 0 -56z m70 -6 c0 -22 -5 -29 -20 -29 -15 0 -20 7 -20 28 0 34 7 43 26 35 8 -3 14 -18 14 -34z" style="&#10;    fill: #45a95e;&#10;"/>
<path d="M1595 1160 l-16 -30 -709 0 -710 0 0 -395 0 -395 1058 0 1057 0 20 -58 20 -57 103 -3 c65 -2 102 1 102 8 0 6 -38 115 -40 115 0 0 29 -2 65 -3 l65 -4 0 396 0 396 -394 0 c-217 0 -397 -4 -400 -8 -2 -4 -1 -14 5 -22 7 -12 9 -12 9 -1 0 11 3 11 17 0 11 -10 14 -10 9 -1 -8 13 19 13 40 -1 6 -3 14 -4 18 0 10 10 115 9 109 -1 -3 -5 2 -4 12 1 10 6 32 7 51 3 22 -5 32 -4 28 2 -4 6 -1 9 7 6 21 -7 22 -33 2 -54 -17 -17 -17 -17 0 -11 25 10 21 -8 -8 -27 -30 -20 -66 -15 -75 9 -6 17 -8 17 -16 3 -9 -15 -84 -31 -84 -17 0 4 -13 4 -30 -1 -25 -7 -30 -6 -31 8 0 14 -2 13 -9 -3 -7 -19 -9 -18 -19 8 -12 31 -22 36 -14 7 4 -16 0 -20 -23 -21 -16 -1 -39 -3 -51 -4 -19 -2 -17 6 29 91 l50 94 -116 0 -115 0 -16 -30z m203 -22 c-74 -129 -89 -159 -86 -173 3 -16 168 -213 179 -214 3 -1 37 36 75 82 124 148 154 177 186 177 48 0 73 -41 157 -254 97 -248 177 -462 186 -499 l7 -28 -87 3 -87 3 -42 115 c-23 63 -68 186 -100 272 l-58 157 -115 -119 c-63 -66 -121 -120 -128 -120 -7 0 -61 62 -120 138 -60 75 -114 143 -121 151 -12 13 -23 -4 -73 -110 -32 -68 -68 -145 -79 -171 -23 -54 -44 -61 -147 -56 l-60 3 -51 95 c-125 231 -139 252 -162 261 -38 14 -250 10 -320 -6 -87 -21 -121 -41 -138 -80 -48 -117 33 -175 249 -178 l102 -2 3 43 3 42 -84 0 -85 0 -21 36 c-12 20 -21 38 -19 39 2 2 76 1 166 -2 l163 -6 -3 -116 -3 -116 -235 -3 c-197 -2 -243 0 -288 14 -65 21 -111 70 -135 147 -31 98 -19 160 44 232 61 69 81 73 402 85 158 6 294 7 302 3 8 -5 55 -68 104 -140 50 -72 94 -134 99 -137 4 -3 62 103 127 235 l119 239 99 0 99 0 -24 -42z m-1118 -89 c0 -33 -4 -59 -10 -59 -6 0 -10 29 -10 66 0 41 4 63 10 59 6 -3 10 -33 10 -66z m500 11 c0 -33 -4 -60 -10 -60 -6 0 -10 27 -10 60 0 33 4 60 10 60 6 0 10 -27 10 -60z m997 4 c2 -28 -1 -43 -7 -39 -5 3 -10 27 -10 52 0 58 13 48 17 -13z m-2000 -36 c-2 -18 -4 -6 -4 27 0 33 2 48 4 33 2 -15 2 -42 0 -60z m102 66 c2 -2 12 1 22 6 12 7 20 7 24 0 4 -6 11 -7 17 -4 12 8 195 7 207 -1 5 -3 12 1 15 7 5 10 7 10 12 1 3 -7 10 -13 15 -13 6 0 7 5 4 10 -4 6 3 9 17 6 17 -2 22 -9 20 -24 -2 -11 1 -23 6 -26 5 -3 7 -18 4 -35 -3 -22 -8 -28 -20 -24 -10 4 -13 2 -8 -5 5 -9 -18 -12 -88 -12 l-96 0 0 -57 c0 -32 -5 -65 -10 -73 -7 -10 -10 7 -10 57 l0 72 -122 4 c-78 2 -43 3 94 5 178 2 216 4 212 16 -3 8 -14 11 -28 9 -13 -3 -27 0 -31 7 -5 8 -10 8 -20 0 -13 -11 -184 -20 -183 -10 2 27 -3 30 -27 14 -13 -8 -28 -13 -34 -10 -5 3 -11 2 -13 -3 -4 -12 -68 -1 -68 11 0 6 8 7 18 4 16 -6 16 -5 0 7 -17 13 -18 27 -4 59 6 13 15 16 39 11 18 -3 34 -7 36 -9z m499 4 c9 -9 12 -9 12 0 0 6 7 9 15 6 8 -4 12 -10 9 -15 -9 -15 6 -10 23 6 13 14 17 14 32 1 13 -11 18 -12 28 -1 17 19 191 14 203 -5 7 -10 10 -11 10 -2 0 6 6 12 14 12 10 0 14 -12 12 -40 0 -22 3 -40 9 -40 6 0 6 -3 0 -9 -14 -12 -455 -22 -455 -10 0 6 4 8 8 5 4 -2 8 4 8 14 0 10 -4 17 -7 14 -4 -2 -7 11 -6 30 1 19 3 33 5 31 2 -2 15 1 30 5 37 11 37 11 50 -2z m467 -8 c3 0 3 5 -1 12 -5 7 -3 8 7 2 21 -13 41 -14 61 -3 13 7 23 7 33 -1 7 -6 16 -7 19 -2 3 5 28 6 56 2 27 -4 50 -3 50 2 0 4 7 8 15 8 18 0 19 -12 3 -29 -11 -11 -9 -11 9 0 12 7 19 18 16 24 -3 5 0 5 7 -2 9 -9 19 -9 32 -2 17 9 16 5 -6 -39 -16 -31 -34 -52 -48 -56 -35 -9 -250 -7 -244 2 8 13 -33 7 -46 -6 -9 -9 -5 -12 20 -12 29 0 34 -6 84 -97 28 -53 54 -90 56 -82 3 8 9 23 14 34 9 19 8 19 -5 2 -14 -17 -18 -12 -55 55 l-41 73 86 3 c47 2 87 1 90 -2 2 -2 -17 -45 -42 -96 -25 -50 -44 -97 -42 -103 2 -6 27 39 57 100 29 62 59 114 66 117 8 3 14 3 14 0 0 -11 -63 -129 -71 -132 -5 -2 -9 -12 -9 -23 0 -10 -5 -19 -12 -19 -6 0 -9 -3 -5 -6 3 -4 -3 -24 -14 -46 l-20 -40 -25 33 c-13 19 -22 39 -20 46 3 8 -2 13 -12 13 -15 0 -15 2 -2 10 13 8 13 10 -2 10 -9 0 -33 23 -53 51 -40 56 -55 86 -37 75 6 -3 13 -2 16 3 4 5 -6 11 -21 13 -26 3 -28 6 -29 58 -1 67 2 73 26 60 10 -5 21 -10 25 -10z m993 9 c-2 -6 8 -15 22 -20 24 -9 24 -8 6 6 -11 8 -18 15 -15 16 31 7 89 4 89 -5 0 -6 5 -4 10 4 9 13 11 13 20 0 7 -11 10 -12 10 -2 0 10 12 12 45 8 24 -2 49 -7 54 -10 5 -4 13 -1 16 5 5 6 18 8 34 3 14 -4 34 -6 44 -6 15 1 16 -2 7 -13 -7 -8 -7 -15 -1 -19 16 -11 9 -45 -9 -38 -13 5 -13 4 0 -13 14 -16 13 -17 -5 -12 -27 9 -173 12 -180 5 -4 -3 -20 -2 -36 2 -18 5 -27 5 -24 -1 3 -5 -1 -6 -10 -3 -9 4 -12 11 -8 18 5 7 0 4 -9 -6 -12 -13 -24 -17 -42 -12 -16 4 -26 2 -26 -5 0 -8 58 -12 188 -13 142 -1 165 -3 97 -7 l-90 -6 0 -72 0 -73 89 0 c49 0 87 -3 84 -6 -8 -7 -289 -7 -296 1 -3 3 20 5 51 5 l57 0 0 75 0 75 -91 0 c-82 0 -93 2 -110 23 -18 21 -26 87 -12 100 11 11 43 8 41 -4z m-1918 -89 c0 -5 -5 -10 -11 -10 -5 0 -7 5 -4 10 3 6 8 10 11 10 2 0 4 -4 4 -10z m1685 -27 l-80 -4 2 -66 c1 -37 5 -73 7 -80 4 -9 -5 -13 -29 -13 -19 0 -35 -5 -35 -11 0 -7 10 -9 24 -7 21 4 23 3 13 -14 -11 -17 -13 -16 -38 10 l-26 27 34 3 33 3 0 74 0 74 -92 4 c-51 1 -12 3 87 3 99 0 144 -2 100 -3z m-1828 -105 c-2 -18 -4 -4 -4 32 0 36 2 50 4 33 2 -18 2 -48 0 -65z m48 82 c3 -5 11 -10 16 -10 6 0 7 5 3 11 -8 13 34 3 54 -14 9 -7 11 -6 6 7 -4 12 -1 16 14 16 12 0 24 -5 28 -11 4 -8 9 -8 13 -1 4 8 11 8 21 1 12 -8 12 -12 2 -16 -8 -3 -10 -9 -4 -16 16 -20 20 -68 7 -73 -24 -10 -95 -9 -95 0 0 6 -5 5 -12 -2 -15 -15 -42 -16 -32 -1 4 7 -1 7 -16 -1 -20 -11 -22 -10 -17 4 3 8 2 18 -3 21 -5 3 -10 -3 -13 -12 -2 -10 -4 3 -4 28 1 46 7 53 35 35 11 -7 11 -4 1 12 -7 12 -17 18 -21 16 -4 -3 -8 0 -8 5 0 14 17 14 25 1z m279 -13 c-13 -10 -28 -16 -34 -12 -5 3 -7 0 -4 -8 3 -8 -2 -20 -11 -27 -14 -12 -16 -10 -11 16 2 16 5 34 5 39 1 6 18 10 39 10 l39 0 -23 -18z m1324 4 c2 -6 8 -11 13 -11 4 0 6 7 3 15 -4 10 0 15 11 15 10 0 13 -5 9 -12 -5 -8 -2 -9 9 -5 12 5 17 1 17 -13 0 -10 -5 -22 -11 -26 -8 -4 -8 -9 0 -17 19 -19 12 -37 -16 -48 -25 -9 -31 -7 -66 31 -33 35 -37 43 -26 58 11 14 11 15 -1 5 -13 -12 -40 -1 -40 16 0 12 94 4 98 -8z m161 -2 l20 -21 -6 21 c-3 13 -1 21 6 21 7 0 9 -4 6 -10 -3 -5 -2 -10 4 -10 5 0 11 6 14 13 2 6 8 9 12 5 10 -9 -66 -98 -78 -91 -6 3 -7 1 -4 -4 4 -6 0 -16 -9 -23 -13 -11 -15 -8 -12 24 2 28 6 35 17 31 11 -4 10 0 -3 14 -15 17 -16 23 -6 36 16 19 15 19 39 -6z m331 8 c0 -4 9 -3 21 3 18 10 21 8 27 -12 l6 -23 7 25 c7 20 8 17 7 -15 -1 -22 -6 -48 -11 -59 -7 -14 -6 -16 3 -11 8 5 11 3 8 -6 -3 -8 -10 -13 -16 -12 -53 11 -73 12 -67 3 3 -5 1 -10 -4 -10 -11 0 -13 5 -15 33 -1 6 -3 14 -6 17 -3 3 -13 22 -22 43 l-18 37 40 -2 c22 -2 40 -7 40 -11z m256 4 c8 -1 11 -21 10 -55 -1 -46 -3 -52 -15 -43 -12 10 -14 9 -8 -6 6 -15 4 -16 -14 -6 -15 8 -19 8 -15 0 4 -6 2 -11 -3 -11 -6 0 -11 6 -11 13 0 9 -3 8 -9 -2 -6 -9 -10 -10 -16 -2 -5 9 -11 9 -22 0 -21 -18 -33 5 -31 63 2 34 7 48 18 50 14 3 89 2 116 -1z m-1562 -131 l71 0 33 -58 c17 -33 29 -62 25 -65 -3 -4 -1 -7 5 -7 15 0 84 -139 76 -153 -4 -7 -3 -9 1 -4 5 4 19 -10 31 -31 l23 -38 93 3 c62 3 98 9 109 19 8 7 23 14 32 14 9 0 17 4 17 10 0 5 -7 7 -16 3 -9 -3 -15 -2 -13 3 2 6 17 40 34 77 l29 67 48 0 48 0 0 54 c0 65 -16 84 -19 23 -2 -23 -3 -48 -4 -54 0 -8 -14 -13 -34 -13 -19 0 -32 3 -30 8 3 4 17 34 32 67 l27 60 25 -29 c20 -23 24 -38 21 -73 l-3 -43 40 0 c37 0 43 -4 75 -51 19 -28 47 -61 62 -74 15 -12 24 -26 21 -29 -4 -3 3 -6 14 -6 13 0 24 9 28 23 8 22 8 22 12 -4 3 -22 8 -25 29 -21 13 2 27 8 30 13 3 5 -2 6 -11 2 -15 -5 -34 10 -35 27 0 3 24 32 53 63 52 57 53 57 110 57 31 0 57 -4 57 -10 0 -6 -27 -10 -62 -10 -77 0 -70 -11 8 -13 l57 -2 18 -55 c10 -30 23 -63 29 -72 9 -15 6 -18 -15 -18 -23 0 -25 -4 -25 -45 0 -25 4 -45 8 -45 5 0 7 18 5 40 -2 33 0 40 15 40 19 0 57 -84 46 -101 -8 -14 -62 -11 -67 4 -3 7 -6 4 -6 -7 -1 -15 -4 -16 -15 -7 -8 7 -17 8 -19 4 -7 -10 -99 -9 -115 1 -7 4 -12 3 -12 -2 0 -6 -13 -7 -32 -3 -18 4 -44 5 -58 2 -20 -5 -190 -6 -222 -2 -4 1 -7 24 -6 52 0 35 4 52 15 56 8 3 19 0 23 -7 5 -8 9 -9 14 -1 4 6 14 11 22 11 10 0 12 -5 8 -12 -6 -10 -4 -10 7 -2 9 7 57 11 132 10 64 0 117 2 117 7 0 4 -79 7 -175 7 l-175 -1 0 -64 c0 -35 -4 -67 -10 -70 -6 -4 -10 20 -10 64 l0 71 -92 0 c-50 0 -89 -2 -86 -5 3 -3 39 -6 81 -6 l75 -1 4 -49 c1 -27 2 -52 1 -57 -2 -4 -74 -6 -160 -5 -87 1 -188 2 -224 2 l-66 1 -2 55 -2 55 30 -5 c16 -3 33 -1 36 5 4 6 -10 10 -34 10 l-41 0 0 -64 c0 -76 -19 -102 -21 -29 -1 26 0 58 1 71 1 18 -4 22 -29 22 -36 0 -41 -17 -8 -25 19 -5 22 -11 19 -50 -4 -48 -6 -49 -77 -47 -91 2 -154 2 -185 0 -19 -1 -70 -1 -112 0 l-77 2 0 55 0 55 191 0 c233 -1 228 -4 228 112 0 77 0 78 26 78 15 0 23 4 19 10 -4 6 -15 8 -26 5 -16 -5 -19 -1 -19 23 0 50 -13 53 -196 53 -92 -1 -169 -3 -171 -5 -3 -2 3 -18 11 -35 9 -16 16 -32 16 -35 0 -12 -70 0 -75 12 -3 7 0 10 5 7 6 -3 10 -2 10 4 0 5 -5 11 -12 13 -6 2 -8 10 -4 17 4 7 13 9 20 4 7 -4 4 -1 -5 8 -9 8 -19 24 -21 35 -3 10 -7 -11 -9 -49 l-4 -67 53 0 c29 0 63 -5 75 -11 12 -7 34 -12 50 -13 21 -1 32 -8 38 -24 9 -24 8 -24 -54 -19 -81 6 -136 15 -156 27 -13 8 -11 9 10 10 14 0 30 -5 37 -12 9 -9 12 -9 12 -1 0 7 17 14 38 16 20 2 -4 4 -55 5 -50 1 -95 7 -98 12 -3 6 3 10 14 10 18 0 20 7 23 68 3 65 4 67 30 67 14 -1 24 3 22 7 -3 4 5 10 18 13 27 6 177 12 196 8 8 -2 46 -3 86 -3z m-661 -7 c-35 -2 -91 -2 -125 0 -35 2 -7 3 62 3 69 0 97 -1 63 -3z m-176 -75 c-2 -13 -4 -3 -4 22 0 25 2 35 4 23 2 -13 2 -33 0 -45z m67 51 c-2 -4 3 -10 12 -13 8 -3 12 -2 9 4 -3 6 -1 10 4 10 6 0 11 -6 11 -12 0 -9 3 -9 8 -2 16 24 46 25 65 2 10 -13 16 -18 13 -11 -4 7 3 17 14 23 19 10 20 8 20 -52 l0 -63 -66 -3 c-42 -1 -72 2 -82 10 -13 10 -14 10 -8 1 5 -9 -1 -13 -18 -13 -28 0 -33 9 -15 27 8 8 7 13 -2 18 -7 5 -10 4 -5 -3 3 -6 2 -13 -4 -17 -18 -11 -11 24 8 35 15 10 15 11 0 6 -12 -4 -16 1 -16 17 1 12 5 27 9 32 9 12 50 15 43 4z m2104 -1 c9 -9 12 -9 12 -1 0 8 9 9 30 3 17 -5 30 -6 30 -2 0 4 14 8 30 9 21 2 28 -1 24 -9 -5 -7 -2 -8 7 -3 16 11 77 7 98 -5 13 -7 13 -9 2 -10 -8 0 -11 -3 -8 -7 4 -3 -1 -12 -11 -20 -16 -13 -16 -14 3 -9 17 5 20 2 19 -22 -1 -15 -7 -26 -13 -24 -7 1 -10 -2 -6 -8 4 -6 -5 -10 -20 -10 -17 0 -29 7 -35 23 -8 21 -9 21 -9 1 -1 -18 -7 -20 -73 -18 -87 1 -83 0 -68 19 11 13 10 14 -1 10 -17 -6 -45 58 -33 76 4 8 3 9 -4 5 -7 -4 -12 -2 -12 3 0 15 23 14 38 -1z m-1704 -65 c-2 -52 -24 -74 -24 -23 0 26 14 70 23 70 1 0 1 -21 1 -47z m1085 -51 c-21 -8 -39 9 -39 35 l0 28 24 -30 c14 -16 20 -32 15 -33z m405 36 c8 -32 7 -38 -5 -38 -5 0 -7 5 -3 11 5 8 1 8 -14 0 -26 -14 -55 -14 -47 -1 4 6 12 7 18 4 7 -4 9 -3 4 1 -7 8 20 45 33 45 4 0 10 -10 14 -22z m-1957 -30 c-3 -7 -5 -2 -5 12 0 14 2 19 5 13 2 -7 2 -19 0 -25z m239 -30 c4 -6 9 -44 12 -84 4 -67 6 -72 23 -64 10 6 20 6 23 1 3 -5 14 -7 24 -4 10 2 34 0 53 -5 25 -8 -18 -10 -169 -11 -133 -1 -201 2 -197 9 3 6 23 10 43 10 20 0 44 4 52 10 9 6 -4 7 -39 4 -47 -4 -52 -2 -41 11 7 8 8 15 2 15 -11 0 -15 79 -4 81 4 1 20 3 36 5 47 5 43 14 -7 14 -25 0 -49 5 -52 10 -4 6 36 10 114 10 80 0 122 -4 127 -12z m2179 2 c-3 -5 -43 -10 -88 -10 l-82 0 2 -66 c1 -36 4 -68 7 -71 7 -7 9 14 7 80 -1 36 2 47 14 47 8 0 15 -4 15 -10 0 -5 5 -10 11 -10 5 0 7 5 4 10 -10 17 27 11 48 -7 18 -17 19 -17 28 0 6 9 13 17 18 17 9 0 3 -57 -9 -85 -16 -35 -15 -47 3 -50 24 -4 35 -15 16 -15 -12 0 -14 -12 -11 -59 l3 -59 -36 -4 c-26 -3 -39 0 -45 11 -7 11 -9 12 -10 3 0 -7 -5 -10 -11 -7 -6 4 -8 13 -5 20 3 8 0 15 -5 17 -6 2 -11 10 -12 18 -2 8 -6 21 -11 29 -5 8 -3 16 5 22 11 7 10 9 -3 9 -26 0 -38 32 -38 99 0 54 -2 61 -19 61 -11 0 -23 5 -26 10 -4 6 37 10 115 10 78 0 119 -4 115 -10z m-1665 -36 c0 -13 -4 -24 -10 -24 -5 0 -10 14 -10 31 0 17 4 28 10 24 6 -3 10 -17 10 -31z m17 -16 c-3 -7 -5 -2 -5 12 0 14 2 19 5 13 2 -7 2 -19 0 -25z m1613 28 c0 -11 -19 -15 -25 -6 -3 5 1 10 9 10 9 0 16 -2 16 -4z m-2067 -118 c-3 -6 -9 -6 -15 0 -6 6 -17 8 -24 5 -10 -4 -14 3 -14 21 l0 27 30 -22 c16 -12 27 -26 23 -31z m2084 10 c-3 -8 -6 -5 -6 6 -1 11 2 17 5 13 3 -3 4 -12 1 -19z m-1943 -48 c9 0 12 -14 9 -47 -2 -27 -6 -53 -8 -59 -3 -11 -58 -10 -92 1 -7 3 -13 1 -13 -3 0 -6 -194 -6 -255 0 -5 0 -14 -1 -20 -2 -5 -1 -21 -2 -35 -1 -24 1 -26 4 -26 56 l-1 55 34 0 c19 0 44 -5 55 -11 14 -8 18 -8 14 0 -5 7 37 10 139 10 80 -1 149 1 152 5 4 4 13 4 21 1 7 -3 19 -5 26 -5z m46 -54 c0 -36 -4 -68 -10 -71 -6 -4 -10 20 -10 64 0 41 4 71 10 71 6 0 10 -28 10 -64z" style="&#10;    fill: #2e7fb4;&#10;"/>

<path d="M380 270 c-32 -32 -24 -61 23 -79 38 -15 74 1 72 31 -1 17 -8 24 -28 26 -15 2 -27 -1 -27 -7 0 -6 7 -11 16 -11 9 0 14 -5 12 -12 -6 -18 -22 -20 -43 -4 -27 20 -9 50 34 54 42 4 40 22 -4 22 -22 0 -43 -8 -55 -20z"/>
<path d="M500 240 l0 -50 40 0 c23 0 40 5 40 11 0 7 -10 9 -25 7 -17 -4 -25 -1 -25 8 0 8 9 14 20 14 11 0 20 5 20 10 0 6 -9 10 -20 10 -11 0 -20 5 -20 10 0 6 9 10 19 10 11 0 23 5 26 10 4 6 -10 10 -34 10 l-41 0 0 -50z"/>
<path d="M600 240 c0 -34 4 -50 13 -50 9 0 12 11 9 38 l-4 37 32 -37 c44 -53 60 -50 60 12 0 37 -4 50 -14 50 -11 0 -13 -9 -10 -37 l5 -38 -31 38 c-45 52 -60 49 -60 -13z"/>
<path d="M850 270 c-31 -31 -25 -56 18 -79 24 -13 62 -7 62 10 0 5 -13 9 -29 9 -32 0 -48 24 -30 46 6 8 22 14 35 14 13 0 24 5 24 10 0 18 -59 11 -80 -10z"/>
<path d="M960 270 c-26 -26 -25 -36 6 -66 19 -20 31 -24 52 -19 48 11 67 58 36 89 -22 22 -70 20 -94 -4z m78 -27 c4 -30 -31 -49 -52 -27 -19 19 -20 26 -4 42 19 19 53 10 56 -15z"/>
<path d="M1090 240 c0 -39 3 -50 16 -50 13 0 15 8 12 37 l-4 36 30 -36 c45 -54 66 -50 66 13 0 38 -4 50 -15 50 -11 0 -15 -11 -15 -37 l0 -36 -27 36 c-16 20 -36 36 -45 37 -15 0 -18 -9 -18 -50z"/>
<path d="M1220 280 c0 -5 9 -10 20 -10 17 0 20 -7 20 -40 0 -29 4 -40 15 -40 11 0 15 11 15 40 0 33 3 40 20 40 11 0 20 5 20 10 0 6 -25 10 -55 10 -30 0 -55 -4 -55 -10z"/>
<path d="M1435 280 c-4 -6 -2 -17 4 -24 9 -10 8 -15 -4 -20 -22 -8 -19 -33 6 -46 14 -8 29 -8 48 -2 18 6 34 6 45 0 12 -7 21 -7 29 1 8 8 5 11 -11 11 -25 0 -27 8 -7 34 14 19 12 36 -6 36 -5 0 -9 -8 -9 -18 0 -26 -11 -34 -27 -21 -10 9 -10 15 -2 25 6 7 8 18 4 24 -8 13 -62 13 -70 0z m46 -13 c-1 -12 -15 -9 -19 4 -3 6 1 10 8 8 6 -3 11 -8 11 -12z m14 -58 c-7 -10 -38 -12 -48 -2 -4 3 -2 12 4 19 13 16 54 0 44 -17z"/>
<path d="M1630 240 c0 -40 3 -50 16 -50 14 0 16 8 11 43 l-6 42 20 -42 c11 -24 26 -43 34 -43 7 0 20 19 28 43 l15 42 1 -42 c1 -31 5 -43 16 -43 11 0 15 12 15 50 0 45 -2 50 -22 50 -17 0 -27 -10 -39 -38 l-15 -37 -14 38 c-11 28 -20 37 -37 37 -21 0 -23 -4 -23 -50z"/>
<path d="M1815 238 c-14 -28 -25 -53 -25 -54 0 -1 9 0 20 3 11 3 20 9 20 14 0 5 11 9 25 9 14 0 25 -4 25 -10 0 -5 7 -10 15 -10 19 0 19 5 -2 57 -25 59 -47 56 -78 -9z m55 0 c0 -5 -7 -8 -15 -8 -17 0 -18 2 -9 25 5 13 8 14 15 3 5 -7 9 -16 9 -20z"/>
<path d="M1920 280 c0 -5 3 -10 8 -10 9 0 8 -52 -2 -68 -5 -8 3 -12 25 -12 26 0 30 3 21 12 -7 7 -12 24 -12 38 0 14 5 31 12 38 9 9 5 12 -20 12 -18 0 -32 -4 -32 -10z"/>
<path d="M1990 240 c0 -38 4 -50 15 -50 11 0 15 11 15 37 l0 38 27 -38 c14 -20 34 -37 45 -37 15 0 18 8 18 50 0 38 -4 50 -15 50 -11 0 -15 -11 -15 -37 l0 -38 -27 38 c-14 20 -34 37 -45 37 -15 0 -18 -8 -18 -50z"/>
<path d="M2120 280 c0 -5 9 -10 20 -10 17 0 20 -7 20 -40 0 -29 4 -40 15 -40 11 0 15 11 15 40 0 33 3 40 20 40 11 0 20 5 20 10 0 6 -25 10 -55 10 -30 0 -55 -4 -55 -10z"/>
<path d="M735 201 c-3 -5 -1 -12 5 -16 12 -7 30 2 30 16 0 12 -27 12 -35 0z"/>
<path d="M1322 199 c2 -6 8 -10 13 -10 5 0 11 4 13 10 2 6 -4 11 -13 11 -9 0 -15 -5 -13 -11z"/>
<path d="M2222 199 c2 -6 8 -10 13 -10 5 0 11 4 13 10 2 6 -4 11 -13 11 -9 0 -15 -5 -13 -11z"/>
</g>
</svg>