<svg xmlns="http://www.w3.org/2000/svg" version="1.0" width="552.000000pt" height="393.000000pt" viewBox="0 0 552.000000 393.000000" preserveAspectRatio="xMidYMid meet">
<metadata>
Created by potrace 1.10, written by Peter Selinger 2001-2011
</metadata>
<g transform="translate(0.000000,393.000000) scale(0.100000,-0.100000)" fill="#2e7fb4" stroke="none">
<path d="M2716 3828 c-11 -13 -56 -63 -100 -113 -44 -49 -89 -101 -101 -115 -11 -13 -40 -47 -65 -75 -65 -72 -178 -200 -209 -237 -14 -17 -53 -61 -86 -98 -33 -36 -79 -87 -102 -113 -43 -48 -76 -60 -87 -31 -10 25 -8 32 25 69 31 35 31 36 13 53 -10 9 -55 35 -99 57 -44 22 -93 49 -110 60 -16 12 -70 43 -120 69 -49 27 -108 61 -130 76 -22 15 -71 44 -110 64 -38 20 -88 48 -110 61 -22 13 -51 29 -65 35 -14 6 -33 18 -42 27 -20 18 -20 17 -103 -92 -25 -33 -78 -103 -118 -154 -39 -52 -79 -105 -87 -117 -14 -21 -97 -129 -211 -274 -28 -36 -67 -83 -87 -105 -20 -23 -53 -61 -72 -85 -19 -25 -74 -93 -122 -152 -48 -59 -88 -110 -88 -113 0 -3 36 -5 80 -5 80 0 80 0 100 33 45 73 108 172 147 230 23 34 52 80 64 102 12 22 47 72 78 112 31 39 81 108 111 153 30 45 65 92 77 105 13 12 23 26 23 30 0 4 12 21 26 39 14 17 50 65 78 106 67 97 92 103 132 33 15 -26 48 -77 73 -113 25 -35 64 -92 86 -126 22 -34 83 -126 136 -205 52 -79 105 -161 118 -181 12 -21 34 -43 48 -50 35 -17 51 -44 38 -62 -26 -35 -165 -195 -202 -232 l-41 -41 -119 -7 c-65 -4 -143 -11 -173 -17 -30 -5 -107 -14 -170 -19 -248 -19 -476 -40 -496 -45 -12 -2 -114 -5 -228 -6 -113 -1 -208 -5 -211 -9 -11 -19 1055 -29 1382 -13 l122 6 128 145 c71 80 137 155 149 166 11 12 38 44 59 71 20 28 60 75 89 106 28 31 59 65 68 75 9 11 22 24 27 29 20 19 102 113 132 152 16 21 56 67 89 103 33 36 85 94 116 130 31 36 77 88 103 115 25 28 64 73 86 100 58 71 81 95 93 95 6 0 28 -19 49 -42 21 -24 55 -60 76 -82 20 -21 37 -41 37 -44 0 -8 93 -115 123 -140 15 -13 27 -27 27 -32 0 -4 15 -24 33 -43 17 -19 60 -68 95 -109 34 -40 99 -115 145 -166 45 -52 91 -106 102 -121 22 -30 219 -257 268 -310 18 -18 48 -56 67 -84 38 -55 119 -116 153 -117 12 0 345 -2 740 -4 543 -2 721 -6 730 -15 17 -17 18 -1765 1 -1802 l-12 -25 -195 4 c-137 3 -197 1 -201 -7 -6 -8 52 -11 213 -9 l219 3 6 927 c3 708 2 929 -7 935 -7 4 -88 9 -182 10 -205 3 -311 9 -515 29 -85 8 -211 19 -280 24 -69 5 -150 14 -180 19 -30 6 -96 12 -146 15 -51 3 -104 10 -120 16 -29 11 -91 73 -147 147 -18 23 -40 45 -49 48 -10 4 -18 10 -18 14 0 5 -13 25 -30 46 -39 49 -39 73 0 86 29 11 37 20 222 298 32 47 69 100 84 118 25 29 40 54 61 93 4 8 39 61 76 118 84 127 90 127 164 22 29 -41 58 -83 65 -92 7 -9 20 -26 28 -38 18 -27 63 -87 107 -144 18 -22 47 -61 65 -86 17 -25 63 -88 102 -140 39 -52 78 -108 86 -125 8 -16 34 -58 57 -92 24 -34 43 -64 43 -67 0 -3 14 -25 30 -49 17 -25 30 -49 31 -53 0 -5 15 -29 33 -54 l33 -45 71 -3 c58 -2 72 0 72 12 0 8 -84 120 -187 248 -102 128 -194 245 -202 260 -9 16 -19 28 -23 28 -3 0 -16 15 -27 34 -12 19 -65 87 -117 153 -53 65 -99 125 -102 133 -3 8 -33 47 -66 86 -34 40 -72 89 -86 109 -14 21 -41 56 -61 78 -36 41 -39 41 -84 14 -11 -7 -58 -33 -105 -60 -47 -26 -92 -52 -100 -57 -22 -14 -134 -77 -210 -118 -36 -19 -72 -40 -80 -47 -8 -7 -28 -19 -45 -27 -39 -20 -219 -119 -223 -123 -2 -2 3 -16 11 -32 18 -35 6 -73 -22 -73 -12 0 -40 23 -69 58 -26 31 -64 75 -83 96 -18 22 -54 62 -79 91 -25 28 -66 75 -92 105 -129 152 -179 209 -222 253 -25 27 -46 51 -46 55 -1 15 -98 112 -111 112 -8 0 -23 -10 -33 -22z"/>
<path d="M2720 3462 c0 -4 -12 -21 -27 -37 -15 -16 -57 -63 -93 -105 -36 -41 -81 -93 -102 -115 -86 -94 -108 -121 -108 -132 0 -22 13 -14 70 38 30 28 93 83 139 122 47 40 96 82 109 95 31 28 51 28 82 -1 14 -12 93 -81 175 -152 83 -71 153 -133 157 -139 4 -6 10 -7 14 -4 8 8 -40 71 -112 148 -28 30 -69 75 -90 100 -21 25 -44 50 -50 55 -6 6 -35 38 -64 73 -37 43 -60 62 -76 62 -13 0 -24 -3 -24 -8z" style="&#10;    fill: gray;&#10;"/>
<path d="M4247 3297 c-20 -28 -53 -70 -73 -92 -19 -22 -41 -52 -49 -68 l-14 -27 27 19 c15 11 54 47 87 80 33 34 66 61 74 61 7 0 49 -36 93 -80 79 -80 98 -93 98 -65 0 8 -4 15 -8 15 -4 0 -25 24 -47 53 -60 81 -128 157 -139 157 -6 0 -28 -24 -49 -53z" style="&#10;    fill: gray;&#10;"/>
<path d="M1051 3203 c-51 -68 -91 -126 -89 -129 3 -2 44 32 91 77 59 55 93 79 106 77 11 -2 61 -43 111 -92 50 -49 94 -86 98 -82 4 4 0 13 -9 19 -9 7 -18 17 -20 23 -10 27 -165 223 -180 227 -11 3 -44 -33 -108 -120z" style="&#10;    fill: gray;&#10;"/>

<path xmlns="http://www.w3.org/2000/svg" d="M1080 3003 c-37 -4 -38 -5 -39 -46 0 -23 -1 -67 -2 -97 l-2 -55 74 -3 c42 -2 79 2 85 8 9 9 13 177 4 185 -7 6 -86 11 -120 8z" style="&#10;    fill: #45a95e;&#10;"/>

<path xmlns="http://www.w3.org/2000/svg" d="M4225 3005 c-37 -4 -38 -5 -39 -46 0 -23 -1 -67 -2 -97 l-2 -55 74 -3 c42 -2 79 2 85 8 9 9 13 177 4 185 -7 6 -86 11 -120 8z" style="&#10;    fill: #45a95e;&#10;"/>

<path d="M2629 2961 c-52 -32 -82 -95 -77 -158 l3 -38 56 -3 c30 -2 67 2 82 7 26 10 27 13 26 88 -1 83 -14 133 -33 133 -7 0 -32 -13 -57 -29z" style="&#10;    fill: #45a95e;&#10;"/>
<path d="M2806 2928 c-3 -35 -3 -85 2 -113 l7 -50 70 0 c70 0 70 0 73 29 6 50 -8 95 -40 132 -29 33 -76 64 -96 64 -5 0 -12 -28 -16 -62z" style="&#10;    fill: #45a95e;&#10;"/>


<path d="M2588 2683 c-37 -4 -38 -5 -39 -46 0 -23 -1 -67 -2 -97 l-2 -55 74 -3 c42 -2 79 2 85 8 9 9 13 177 4 185 -7 6 -86 11 -120 8z" style="&#10;    fill: #45a95e;&#10;"/>
<path d="M2808 2628 c-1 -29 -2 -72 -3 -95 -2 -51 6 -55 90 -47 l62 6 1 94 2 94 -75 0 -75 0 -2 -52z" style="&#10;    fill: #45a95e;&#10;"/>
<path d="M3162 2378 c-5 -7 -13 -23 -16 -35 -4 -12 -16 -32 -26 -46 l-20 -25 -1470 0 c-809 0 -1473 -2 -1476 -5 -3 -3 -7 -1286 -4 -1619 l0 -48 2150 0 2151 0 27 -44 27 -44 170 -4 c214 -4 225 -2 239 40 6 18 17 37 25 41 7 5 88 9 180 10 137 1 168 4 178 17 14 19 18 1621 4 1643 -8 12 -135 14 -843 15 -734 1 -833 3 -831 16 1 8 5 27 9 43 13 55 3 57 -241 57 -166 0 -225 -3 -233 -12z m447 -24 c11 -4 11 -8 -3 -22 -9 -10 -16 -22 -16 -26 0 -9 -128 -266 -179 -359 -17 -31 -31 -59 -31 -62 0 -2 28 -39 62 -82 34 -43 85 -107 112 -143 28 -36 56 -71 63 -78 7 -8 25 -30 40 -50 40 -55 75 -92 87 -92 6 0 29 26 51 58 51 74 48 70 88 117 37 44 153 195 177 229 29 42 85 102 122 129 44 31 117 38 138 12 7 -8 18 -15 24 -15 15 0 52 -48 85 -110 23 -42 41 -92 61 -165 5 -16 25 -75 45 -130 20 -55 40 -111 45 -125 5 -14 25 -70 45 -125 20 -55 48 -134 62 -175 13 -41 30 -88 38 -105 13 -30 52 -139 107 -295 17 -47 37 -99 44 -117 15 -34 17 -53 8 -77 -5 -14 -31 -16 -182 -16 -191 0 -212 6 -212 58 0 13 -7 36 -14 50 -8 15 -45 117 -81 227 -37 110 -70 209 -74 220 -16 41 -33 92 -57 170 -14 44 -29 87 -33 95 -5 9 -12 30 -16 48 -8 39 -17 40 -45 5 -12 -16 -50 -59 -84 -98 -35 -38 -86 -97 -113 -130 -27 -33 -70 -80 -94 -105 -24 -25 -59 -65 -77 -88 -28 -35 -40 -42 -68 -42 -51 0 -68 13 -99 72 -23 44 -107 164 -194 278 -11 14 -34 46 -53 71 -81 113 -151 199 -163 199 -7 0 -43 -62 -81 -137 -38 -76 -71 -140 -74 -143 -3 -3 -41 -76 -83 -162 -43 -86 -83 -161 -90 -166 -7 -6 -94 -12 -195 -13 l-182 -4 -25 30 c-13 17 -24 35 -25 41 0 6 -38 75 -85 153 -47 79 -85 145 -85 148 0 3 -22 42 -50 88 -27 46 -50 85 -50 88 0 21 -75 126 -93 131 -12 3 -128 9 -257 12 -196 6 -251 4 -333 -10 -144 -25 -237 -70 -292 -142 -36 -46 -56 -156 -40 -218 15 -56 33 -77 101 -116 93 -52 204 -72 408 -73 128 -1 150 2 161 16 14 19 28 104 19 118 -3 5 -74 9 -158 9 -167 0 -174 2 -196 60 -8 19 -16 37 -19 40 -3 3 -14 22 -25 42 -35 69 -46 67 326 61 223 -4 338 -9 347 -17 12 -9 13 -54 7 -270 -4 -190 -10 -262 -19 -268 -6 -4 -224 -8 -483 -8 -528 0 -525 0 -661 76 -155 86 -223 238 -223 495 0 199 96 363 250 429 14 6 34 15 45 20 50 23 117 31 360 40 143 5 330 14 415 20 85 5 226 12 313 14 184 5 165 14 245 -114 30 -47 72 -114 95 -149 61 -94 59 -91 97 -151 70 -113 97 -157 103 -173 15 -40 27 -22 120 183 16 36 35 79 43 95 25 58 76 171 104 230 16 33 35 76 44 96 8 19 31 71 49 115 19 43 46 105 61 136 14 31 26 61 26 66 0 5 6 15 14 22 8 6 16 21 18 33 3 20 10 22 78 27 85 6 338 2 359 -6z m-2381 -126 c5 -7 9 -57 8 -112 -1 -59 3 -100 9 -102 5 -2 203 -5 438 -7 280 -2 431 -7 438 -14 15 -15 -58 -21 -336 -28 -374 -10 -708 -16 -735 -13 -14 1 -51 1 -82 1 -32 -1 -66 -2 -75 -2 -10 0 -53 1 -95 3 -64 2 -79 0 -83 -13 -2 -9 -4 -78 -3 -154 1 -136 1 -137 24 -143 14 -4 24 -14 24 -25 0 -17 -14 -18 -282 -14 -156 2 -286 4 -290 4 -5 1 -8 7 -8 15 0 22 35 26 246 25 110 0 204 0 210 0 10 1 18 260 9 292 -5 13 -35 15 -233 15 l-227 -1 -3 23 c-3 22 -3 22 145 23 81 0 306 1 498 2 l350 2 3 105 c3 117 5 130 25 130 8 0 19 -6 25 -12z m3180 -108 l3 -116 297 -1 c585 -1 554 0 550 -25 -3 -25 8 -23 -223 -31 l-80 -2 -9 -143 c-4 -79 -6 -146 -2 -149 3 -4 76 -5 161 -4 151 2 155 2 155 -18 0 -20 -6 -21 -97 -22 -304 -5 -592 -3 -598 3 -4 4 -5 14 -2 23 5 13 31 15 162 15 l156 0 -3 144 c-2 79 -6 147 -10 151 -3 4 -106 8 -228 9 -204 3 -223 4 -248 23 -32 24 -44 82 -38 179 4 70 11 86 34 82 15 -3 17 -21 20 -118z m-2110 5 c4 -131 0 -145 -39 -145 l-30 0 2 118 c0 64 3 121 6 125 3 5 17 7 31 5 27 -3 27 -3 30 -103z m160 -125 c38 0 24 -14 -30 -31 -47 -15 -54 -15 -75 -2 -13 9 -23 19 -23 24 0 9 56 18 85 13 11 -2 30 -4 43 -4z m514 -9 c4 -3 -2 -16 -12 -29 -19 -23 -19 -23 -56 -5 -45 21 -54 40 -22 45 26 5 80 -2 90 -11z m1156 0 c1 -4 -8 -15 -20 -23 -16 -11 -50 -15 -116 -15 -50 0 -94 -2 -97 -5 -3 -3 -8 -63 -10 -134 -7 -168 -19 -196 -90 -207 -49 -7 -149 -2 -167 9 -5 3 -4 11 2 19 9 10 32 12 99 8 70 -5 89 -3 93 8 3 8 3 81 0 162 l-5 149 -96 -7 c-53 -3 -110 -8 -127 -11 -18 -3 -35 -1 -38 5 -11 17 -53 13 -60 -6 -9 -24 -29 -1 -24 28 2 17 11 25 33 30 46 9 620 0 623 -10z m-1308 -337 c0 -23 -20 -55 -31 -49 -10 7 -12 48 -2 58 12 13 33 7 33 -9z m511 -274 c10 -6 19 -21 19 -33 0 -46 12 -67 36 -67 15 0 24 -6 24 -15 0 -13 -23 -15 -151 -15 -138 0 -150 1 -147 17 2 12 14 19 38 20 19 1 59 4 88 6 65 5 80 17 64 52 -21 45 -12 56 29 35z m-2077 -77 c4 -5 44 -8 89 -9 90 -1 148 -17 129 -36 -11 -11 -226 -13 -243 -2 -14 8 -10 54 4 54 8 0 17 -3 21 -7z m1012 -19 c9 -35 -6 -48 -39 -33 -25 11 -25 12 -9 35 22 31 40 30 48 -2z m-1549 -11 c3 -7 0 -20 -5 -30 -6 -10 -12 -71 -14 -136 -2 -78 -7 -122 -15 -129 -18 -15 -21 0 -27 141 -3 68 -8 126 -11 129 -2 2 -103 5 -225 6 -139 1 -220 5 -220 11 0 20 511 28 517 8z m4393 5 c90 -1 149 -5 148 -10 -2 -6 -67 -9 -154 -9 -179 2 -178 3 -175 -96 2 -50 -1 -64 -11 -61 -9 3 -13 25 -13 69 0 52 -4 67 -20 81 -17 15 -18 19 -5 28 8 6 29 8 47 5 17 -3 99 -6 183 -7z m-925 -8 l30 -8 -30 -1 c-16 -1 -40 -4 -52 -7 -17 -5 -23 -2 -23 10 0 17 23 19 75 6z m550 0 c4 -6 -5 -10 -19 -10 -14 0 -26 5 -26 10 0 6 9 10 19 10 11 0 23 -4 26 -10z m120 0 c3 -5 3 -10 -2 -11 -76 -7 -107 -3 -97 12 7 12 91 11 99 -1z m-3097 -112 c14 -18 -3 -59 -22 -52 -21 8 -28 34 -15 50 14 17 24 18 37 2z m-1059 -211 c6 -8 8 -17 4 -20 -12 -12 -53 -7 -53 6 0 28 30 37 49 14z m1586 -40 c-3 -12 -7 -61 -8 -109 -3 -129 -21 -114 -28 22 -4 63 -5 118 -2 123 2 4 13 2 25 -4 14 -8 18 -17 13 -32z m1055 -53 c0 -36 -4 -63 -9 -60 -11 7 -11 126 1 126 4 0 8 -30 8 -66z m-2120 -102 c0 -15 -5 -34 -10 -42 -7 -11 -10 -2 -10 33 0 30 4 46 10 42 6 -3 10 -18 10 -33z"/>
<path d="M35 2352 c-9 -9 -5 -1763 4 -1758 6 4 11 710 11 1612 0 115 1 121 22 131 22 10 22 10 -5 15 -14 3 -29 3 -32 0z"/>
<path d="M32 523 c3 -34 6 -38 33 -41 l30 -2 -22 16 c-13 9 -23 27 -23 40 0 13 -5 24 -11 24 -6 0 -9 -16 -7 -37z"/>
<path d="M107 488 c-7 -4 962 -8 2152 -8 1190 0 2162 3 2159 6 -9 8 -4298 10 -4311 2z"/>

</g>
</svg>